<mxfile host="app.diagrams.net" modified="2023-10-10T04:44:48.628Z" agent="Mozilla/5.0 (X11; Linux x86_64; rv:109.0) Gecko/20100101 Firefox/119.0" version="22.0.4" etag="Vppx0XUh9vLtpO-YsSt8" type="github">
  <diagram name="Page-1" id="O3b-VdhMQpda7y7U2jyk">
    <mxGraphModel>
      <root>
        <mxCell id="0" />
        <mxCell id="1" parent="0" />
      </root>
    </mxGraphModel>
  </diagram>
</mxfile>
